<svg width="24" height="24" viewBox="0 0 24 24" fill="none" xmlns="http://www.w3.org/2000/svg">
<path d="M12 4.64C14.2533 4.64 15.7733 5.61333 16.64 6.42667L20.0267 3.12C17.9467 1.18667 15.24 0 12 0C7.30666 0 3.25333 2.69333 1.28 6.61333L5.16 9.62667C6.13333 6.73333 8.82666 4.64 12 4.64V4.64Z" fill="#EA4335"/>
<path d="M23.52 12.2666C23.52 11.2799 23.44 10.5599 23.2666 9.81323H12V14.2666H18.6133C18.48 15.3732 17.76 17.0399 16.16 18.1599L19.9466 21.0932C22.2133 18.9999 23.52 15.9199 23.52 12.2666V12.2666Z" fill="#4285F4"/>
<path d="M5.17333 14.3734C4.92 13.6267 4.77333 12.8267 4.77333 12.0001C4.77333 11.1734 4.92 10.3734 5.16 9.62674L1.28 6.6134C0.466666 8.24007 0 10.0667 0 12.0001C0 13.9334 0.466666 15.7601 1.28 17.3867L5.17333 14.3734V14.3734Z" fill="#FBBC05"/>
<path d="M12 24C15.24 24 17.96 22.9333 19.9467 21.0933L16.16 18.16C15.1467 18.8666 13.7867 19.36 12 19.36C8.82667 19.36 6.13333 17.2666 5.17333 14.3733L1.29333 17.3866C3.26667 21.3066 7.30667 24 12 24V24Z" fill="#34A853"/>
</svg>
